<?xml version="1.0" encoding="UTF-8" standalone="no"?>
<!-- Created with Inkscape (http://www.inkscape.org/) -->

<svg
   xmlns:dc="http://purl.org/dc/elements/1.1/"
   xmlns:cc="http://creativecommons.org/ns#"
   xmlns:rdf="http://www.w3.org/1999/02/22-rdf-syntax-ns#"
   xmlns:svg="http://www.w3.org/2000/svg"
   xmlns="http://www.w3.org/2000/svg"
   xmlns:sodipodi="http://sodipodi.sourceforge.net/DTD/sodipodi-0.dtd"
   xmlns:inkscape="http://www.inkscape.org/namespaces/inkscape"
   version="1.1"
   id="svg2"
   xml:space="preserve"
   width="479.45114"
   height="143.62106"
   viewBox="0 0 479.45114 143.62106"
   sodipodi:docname="DAGs_3.svg"
   inkscape:version="0.92.5 (2060ec1f9f, 2020-04-08)"><metadata
     id="metadata8"><rdf:RDF><cc:Work
         rdf:about=""><dc:format>image/svg+xml</dc:format><dc:type
           rdf:resource="http://purl.org/dc/dcmitype/StillImage" /><dc:title></dc:title></cc:Work></rdf:RDF></metadata><defs
     id="defs6" /><sodipodi:namedview
     pagecolor="#ffffff"
     bordercolor="#666666"
     borderopacity="1"
     objecttolerance="10"
     gridtolerance="10"
     guidetolerance="10"
     inkscape:pageopacity="0"
     inkscape:pageshadow="2"
     inkscape:window-width="1920"
     inkscape:window-height="1051"
     id="namedview4"
     showgrid="false"
     fit-margin-top="0"
     fit-margin-left="0"
     fit-margin-right="0"
     fit-margin-bottom="0"
     inkscape:zoom="1.6819299"
     inkscape:cx="200.56573"
     inkscape:cy="34.701919"
     inkscape:window-x="1280"
     inkscape:window-y="0"
     inkscape:window-maximized="1"
     inkscape:current-layer="g10" /><g
     id="g10"
     inkscape:groupmode="layer"
     inkscape:label="blog_1"
     transform="matrix(1.3333333,0,0,-1.3333333,-157.12537,979.0569)"><g
       id="g20"
       transform="translate(129.782,722.955)"><g
         id="g22"><g
           id="g24"><g
             id="g26"><path
               d="M 11.73872,0 C 11.73872,6.15166 6.48318,11.13844 0,11.13844 -6.48318,11.13844 -11.73872,6.15166 -11.73872,0 c 0,-6.15166 5.25554,-11.13844 11.73872,-11.13844 6.48318,0 11.73872,4.98678 11.73872,11.13844 z"
               style="fill:none;stroke:#000000;stroke-width:0.3985;stroke-linecap:butt;stroke-linejoin:miter;stroke-miterlimit:10;stroke-dasharray:none;stroke-opacity:1"
               id="path28"
               inkscape:connector-curvature="0" /><g
               id="g30"
               transform="translate(-4.316,-3.891)"><g
                 id="g32"><g
                   id="g34"
                   transform="translate(-125.466,-719.064)"><text
                     transform="matrix(1,0,0,-1,125.466,719.064)"
                     style="font-variant:normal;font-size:11.9552002px;font-family:'Nimbus Roman';-inkscape-font-specification:NimbusRomNo9L-Regu;writing-mode:lr-tb;fill:#000000;fill-opacity:1;fill-rule:nonzero;stroke:none"
                     id="text38"><tspan
                       x="0"
                       y="0"
                       id="tspan36">X</tspan></text>
<g
                     id="g40"
                     transform="translate(125.466,719.064)" /></g></g><g
                 id="g42"
                 transform="translate(4.316,3.891)" /></g></g><g
             id="g44"><path
               d="m 11.73872,-42.5202 c 0,6.15167 -5.25554,11.13844 -11.73872,11.13844 -6.48318,0 -11.73872,-4.98677 -11.73872,-11.13844 0,-6.15166 5.25554,-11.13845 11.73872,-11.13845 6.48318,0 11.73872,4.98679 11.73872,11.13845 z"
               style="fill:none;stroke:#000000;stroke-width:0.3985;stroke-linecap:butt;stroke-linejoin:miter;stroke-miterlimit:10;stroke-dasharray:none;stroke-opacity:1"
               id="path46"
               inkscape:connector-curvature="0" /><g
               id="g48"
               transform="translate(-4.316,-46.411)"><g
                 id="g50"><g
                   id="g52"
                   transform="translate(-125.466,-676.544)"><text
                     transform="matrix(1,0,0,-1,125.466,676.544)"
                     style="font-variant:normal;font-size:11.9552002px;font-family:'Nimbus Roman';-inkscape-font-specification:NimbusRomNo9L-Regu;writing-mode:lr-tb;fill:#000000;fill-opacity:1;fill-rule:nonzero;stroke:none"
                     id="text56"><tspan
                       x="0"
                       y="0"
                       id="tspan54">Y</tspan></text>
<g
                     id="g58"
                     transform="translate(125.466,676.544)" /></g></g><g
                 id="g60"
                 transform="translate(4.316,46.411)" /></g></g><g
             id="g62"><path
               d="m 10.80037,-85.04042 c 0,6.15166 -4.83542,11.13844 -10.80037,11.13844 -5.96495,0 -10.80037,-4.98678 -10.80037,-11.13844 0,-6.15166 4.83542,-11.13844 10.80037,-11.13844 5.96495,0 10.80037,4.98678 10.80037,11.13844 z"
               style="fill:none;stroke:#000000;stroke-width:0.3985;stroke-linecap:butt;stroke-linejoin:miter;stroke-miterlimit:10;stroke-dasharray:none;stroke-opacity:1"
               id="path64"
               inkscape:connector-curvature="0" /><g
               id="g66"
               transform="translate(-3.652,-88.93)"><g
                 id="g68"><g
                   id="g70"
                   transform="translate(-126.13,-634.025)"><text
                     transform="matrix(1,0,0,-1,126.13,634.025)"
                     style="font-variant:normal;font-size:11.9552002px;font-family:'Nimbus Roman';-inkscape-font-specification:NimbusRomNo9L-Regu;writing-mode:lr-tb;fill:#000000;fill-opacity:1;fill-rule:nonzero;stroke:none"
                     id="text74"><tspan
                       x="0"
                       y="0"
                       id="tspan72">Z</tspan></text>
<g
                     id="g76"
                     transform="translate(126.13,634.025)" /></g></g><g
                 id="g78"
                 transform="translate(3.652,88.93)" /></g></g><g
             id="g80"><path
               d="M 0,-11.33769 V -26.59966"
               style="fill:none;stroke:#000000;stroke-width:0.3985;stroke-linecap:butt;stroke-linejoin:miter;stroke-miterlimit:10;stroke-dasharray:none;stroke-opacity:1"
               id="path82"
               inkscape:connector-curvature="0" /><g
               id="g84"
               transform="rotate(-90,-13.29983,-13.29983)"><g
                 id="g86"><path
                   d="M 3.7613,0 C 3.2994,0.1127 1.26901,0.75136 0,1.44638 V -1.44638 C 1.26901,-0.75136 3.2994,-0.1127 3.7613,0 Z"
                   style="fill:#000000;fill-opacity:1;fill-rule:nonzero;stroke:#000000;stroke-width:0.3985;stroke-linecap:butt;stroke-linejoin:miter;stroke-miterlimit:10;stroke-dasharray:none;stroke-opacity:1"
                   id="path88"
                   inkscape:connector-curvature="0" /></g></g></g><g
             id="g90"><path
               d="M 0,-53.8579 V -69.11987"
               style="fill:none;stroke:#000000;stroke-width:0.3985;stroke-linecap:butt;stroke-linejoin:miter;stroke-miterlimit:10;stroke-dasharray:none;stroke-opacity:1"
               id="path92"
               inkscape:connector-curvature="0" /><g
               id="g94"
               transform="rotate(-90,-34.559935,-34.559935)"><g
                 id="g96"><path
                   d="M 3.7613,0 C 3.2994,0.1127 1.26901,0.75136 0,1.44638 V -1.44638 C 1.26901,-0.75136 3.2994,-0.1127 3.7613,0 Z"
                   style="fill:#000000;fill-opacity:1;fill-rule:nonzero;stroke:#000000;stroke-width:0.3985;stroke-linecap:butt;stroke-linejoin:miter;stroke-miterlimit:10;stroke-dasharray:none;stroke-opacity:1"
                   id="path98"
                   inkscape:connector-curvature="0" /></g></g></g></g></g><g
         id="g100"
         transform="translate(55.211)"><g
           id="g102"><g
             id="g104"><g
               id="g106"><path
                 d="M 11.73872,0 C 11.73872,6.15166 6.48318,11.13844 0,11.13844 -6.48318,11.13844 -11.73872,6.15166 -11.73872,0 c 0,-6.15166 5.25554,-11.13844 11.73872,-11.13844 6.48318,0 11.73872,4.98678 11.73872,11.13844 z"
                 style="fill:none;stroke:#000000;stroke-width:0.3985;stroke-linecap:butt;stroke-linejoin:miter;stroke-miterlimit:10;stroke-dasharray:none;stroke-opacity:1"
                 id="path108"
                 inkscape:connector-curvature="0" /><g
                 id="g110"
                 transform="translate(-4.316,-3.891)"><g
                   id="g112"><g
                     id="g114"
                     transform="translate(-180.677,-719.064)"><text
                       transform="matrix(1,0,0,-1,180.677,719.064)"
                       style="font-variant:normal;font-size:11.9552002px;font-family:'Nimbus Roman';-inkscape-font-specification:NimbusRomNo9L-Regu;writing-mode:lr-tb;fill:#000000;fill-opacity:1;fill-rule:nonzero;stroke:none"
                       id="text118"><tspan
                         x="0"
                         y="0"
                         id="tspan116">Y</tspan></text>
<g
                       id="g120"
                       transform="translate(180.677,719.064)" /></g></g><g
                   id="g122"
                   transform="translate(4.316,3.891)" /></g></g><g
               id="g124"><path
                 d="m 11.73872,-42.5202 c 0,6.15167 -5.25554,11.13844 -11.73872,11.13844 -6.48318,0 -11.73872,-4.98677 -11.73872,-11.13844 0,-6.15166 5.25554,-11.13845 11.73872,-11.13845 6.48318,0 11.73872,4.98679 11.73872,11.13845 z"
                 style="fill:none;stroke:#000000;stroke-width:0.3985;stroke-linecap:butt;stroke-linejoin:miter;stroke-miterlimit:10;stroke-dasharray:none;stroke-opacity:1"
                 id="path126"
                 inkscape:connector-curvature="0" /><g
                 id="g128"
                 transform="translate(-4.316,-46.411)"><g
                   id="g130"><g
                     id="g132"
                     transform="translate(-180.677,-676.544)"><text
                       transform="matrix(1,0,0,-1,180.677,676.544)"
                       style="font-variant:normal;font-size:11.9552002px;font-family:'Nimbus Roman';-inkscape-font-specification:NimbusRomNo9L-Regu;writing-mode:lr-tb;fill:#000000;fill-opacity:1;fill-rule:nonzero;stroke:none"
                       id="text136"><tspan
                         x="0"
                         y="0"
                         id="tspan134">Y</tspan></text>
<g
                       id="g138"
                       transform="translate(180.677,676.544)" /></g></g><g
                   id="g140"
                   transform="translate(4.316,46.411)" /></g></g><g
               id="g142"><path
                 d="m 10.80037,-85.04042 c 0,6.15166 -4.83542,11.13844 -10.80037,11.13844 -5.96495,0 -10.80037,-4.98678 -10.80037,-11.13844 0,-6.15166 4.83542,-11.13844 10.80037,-11.13844 5.96495,0 10.80037,4.98678 10.80037,11.13844 z"
                 style="fill:none;stroke:#000000;stroke-width:0.3985;stroke-linecap:butt;stroke-linejoin:miter;stroke-miterlimit:10;stroke-dasharray:none;stroke-opacity:1"
                 id="path144"
                 inkscape:connector-curvature="0" /><g
                 id="g146"
                 transform="translate(-3.652,-88.93)"><g
                   id="g148"><g
                     id="g150"
                     transform="translate(-181.341,-634.025)"><text
                       transform="matrix(1,0,0,-1,181.341,634.025)"
                       style="font-variant:normal;font-size:11.9552002px;font-family:'Nimbus Roman';-inkscape-font-specification:NimbusRomNo9L-Regu;writing-mode:lr-tb;fill:#000000;fill-opacity:1;fill-rule:nonzero;stroke:none"
                       id="text154"><tspan
                         x="0"
                         y="0"
                         id="tspan152">Z</tspan></text>
<g
                       id="g156"
                       transform="translate(181.341,634.025)" /></g></g><g
                   id="g158"
                   transform="translate(3.652,88.93)" /></g></g><g
               id="g160"><path
                 d="m 0,-73.70273 v 15.26198"
                 style="fill:none;stroke:#000000;stroke-width:0.3985;stroke-linecap:butt;stroke-linejoin:miter;stroke-miterlimit:10;stroke-dasharray:none;stroke-opacity:1"
                 id="path162"
                 inkscape:connector-curvature="0" /><g
                 id="g164"
                 transform="rotate(90,29.220375,-29.220375)"><g
                   id="g166"><path
                     d="M 3.7613,0 C 3.2994,0.1127 1.26901,0.75136 0,1.44638 V -1.44638 C 1.26901,-0.75136 3.2994,-0.1127 3.7613,0 Z"
                     style="fill:#000000;fill-opacity:1;fill-rule:nonzero;stroke:#000000;stroke-width:0.3985;stroke-linecap:butt;stroke-linejoin:miter;stroke-miterlimit:10;stroke-dasharray:none;stroke-opacity:1"
                     id="path168"
                     inkscape:connector-curvature="0" /></g></g></g><g
               id="g170"><path
                 d="m 0,-31.18251 v 15.26198"
                 style="fill:none;stroke:#000000;stroke-width:0.3985;stroke-linecap:butt;stroke-linejoin:miter;stroke-miterlimit:10;stroke-dasharray:none;stroke-opacity:1"
                 id="path172"
                 inkscape:connector-curvature="0" /><g
                 id="g174"
                 transform="rotate(90,7.960265,-7.960265)"><g
                   id="g176"><path
                     d="M 3.7613,0 C 3.2994,0.1127 1.26901,0.75136 0,1.44638 V -1.44638 C 1.26901,-0.75136 3.2994,-0.1127 3.7613,0 Z"
                     style="fill:#000000;fill-opacity:1;fill-rule:nonzero;stroke:#000000;stroke-width:0.3985;stroke-linecap:butt;stroke-linejoin:miter;stroke-miterlimit:10;stroke-dasharray:none;stroke-opacity:1"
                     id="path178"
                     inkscape:connector-curvature="0" /></g></g></g></g></g><g
           id="g180"
           transform="translate(55.211)"><g
             id="g182"><g
               id="g184"><g
                 id="g186"><path
                   d="M 11.73872,0 C 11.73872,6.15166 6.48318,11.13844 0,11.13844 -6.48318,11.13844 -11.73872,6.15166 -11.73872,0 c 0,-6.15166 5.25554,-11.13844 11.73872,-11.13844 6.48318,0 11.73872,4.98678 11.73872,11.13844 z"
                   style="fill:none;stroke:#000000;stroke-width:0.3985;stroke-linecap:butt;stroke-linejoin:miter;stroke-miterlimit:10;stroke-dasharray:none;stroke-opacity:1"
                   id="path188"
                   inkscape:connector-curvature="0" /><g
                   id="g190"
                   transform="translate(-4.316,-3.891)"><g
                     id="g192"><g
                       id="g194"
                       transform="translate(-235.888,-719.064)"><text
                         transform="matrix(1,0,0,-1,235.888,719.064)"
                         style="font-variant:normal;font-size:11.9552002px;font-family:'Nimbus Roman';-inkscape-font-specification:NimbusRomNo9L-Regu;writing-mode:lr-tb;fill:#000000;fill-opacity:1;fill-rule:nonzero;stroke:none"
                         id="text198"><tspan
                           x="0"
                           y="0"
                           id="tspan196">X</tspan></text>
<g
                         id="g200"
                         transform="translate(235.888,719.064)" /></g></g><g
                     id="g202"
                     transform="translate(4.316,3.891)" /></g></g><g
                 id="g204"><path
                   d="m 96.77914,0 c 0,6.15166 -5.25554,11.13844 -11.73872,11.13844 C 78.55724,11.13844 73.3017,6.15166 73.3017,0 c 0,-6.15166 5.25554,-11.13844 11.73872,-11.13844 6.48318,0 11.73872,4.98678 11.73872,11.13844 z"
                   style="fill:none;stroke:#000000;stroke-width:0.3985;stroke-linecap:butt;stroke-linejoin:miter;stroke-miterlimit:10;stroke-dasharray:none;stroke-opacity:1"
                   id="path206"
                   inkscape:connector-curvature="0" /><g
                   id="g208"
                   transform="translate(80.723,-3.891)"><g
                     id="g210"><g
                       id="g212"
                       transform="translate(-320.927,-719.064)"><text
                         transform="matrix(1,0,0,-1,320.927,719.064)"
                         style="font-variant:normal;font-size:11.9552002px;font-family:'Nimbus Roman';-inkscape-font-specification:NimbusRomNo9L-Regu;writing-mode:lr-tb;fill:#000000;fill-opacity:1;fill-rule:nonzero;stroke:none"
                         id="text216"><tspan
                           x="0"
                           y="0"
                           id="tspan214">Y</tspan></text>
<g
                         id="g218"
                         transform="translate(320.927,719.064)" /></g></g><g
                     id="g220"
                     transform="translate(-80.723,3.891)" /></g></g><g
                 id="g222"><path
                   d="m 53.32059,-85.04042 c 0,6.15166 -4.83544,11.13844 -10.80039,11.13844 -5.96495,0 -10.80038,-4.98678 -10.80038,-11.13844 0,-6.15166 4.83543,-11.13844 10.80038,-11.13844 5.96495,0 10.80039,4.98678 10.80039,11.13844 z"
                   style="fill:none;stroke:#000000;stroke-width:0.3985;stroke-linecap:butt;stroke-linejoin:miter;stroke-miterlimit:10;stroke-dasharray:none;stroke-opacity:1"
                   id="path224"
                   inkscape:connector-curvature="0" /><g
                   id="g226"
                   transform="translate(38.867,-88.93)"><g
                     id="g228"><g
                       id="g230"
                       transform="translate(-279.071,-634.025)"><text
                         transform="matrix(1,0,0,-1,279.071,634.025)"
                         style="font-variant:normal;font-size:11.9552002px;font-family:'Nimbus Roman';-inkscape-font-specification:NimbusRomNo9L-Regu;writing-mode:lr-tb;fill:#000000;fill-opacity:1;fill-rule:nonzero;stroke:none"
                         id="text234"><tspan
                           x="0"
                           y="0"
                           id="tspan232">Z</tspan></text>
<g
                         id="g236"
                         transform="translate(279.071,634.025)" /></g></g><g
                     id="g238"
                     transform="translate(-38.867,88.93)" /></g></g><g
                 id="g240"><path
                   d="M 37.48145,-74.96286 7.17015,-14.3396"
                   style="fill:none;stroke:#000000;stroke-width:0.3985;stroke-linecap:butt;stroke-linejoin:miter;stroke-miterlimit:10;stroke-dasharray:none;stroke-opacity:1"
                   id="path242"
                   inkscape:connector-curvature="0" /><g
                   id="g244"
                   transform="matrix(-0.44717,0.89436,-0.89436,-0.44717,7.17015,-14.3396)"><g
                     id="g246"><path
                       d="M 3.7613,0 C 3.2994,0.1127 1.26901,0.75136 0,1.44638 V -1.44638 C 1.26901,-0.75136 3.2994,-0.1127 3.7613,0 Z"
                       style="fill:#000000;fill-opacity:1;fill-rule:nonzero;stroke:#000000;stroke-width:0.3985;stroke-linecap:butt;stroke-linejoin:miter;stroke-miterlimit:10;stroke-dasharray:none;stroke-opacity:1"
                       id="path248"
                       inkscape:connector-curvature="0" /></g></g></g><g
                 id="g250"><path
                   d="M 47.55896,-74.96286 77.87025,-14.3396"
                   style="fill:none;stroke:#000000;stroke-width:0.3985;stroke-linecap:butt;stroke-linejoin:miter;stroke-miterlimit:10;stroke-dasharray:none;stroke-opacity:1"
                   id="path252"
                   inkscape:connector-curvature="0" /><g
                   id="g254"
                   transform="matrix(0.44717,0.89436,-0.89436,0.44717,77.87025,-14.3396)"><g
                     id="g256"><path
                       d="M 3.7613,0 C 3.2994,0.1127 1.26901,0.75136 0,1.44638 V -1.44638 C 1.26901,-0.75136 3.2994,-0.1127 3.7613,0 Z"
                       style="fill:#000000;fill-opacity:1;fill-rule:nonzero;stroke:#000000;stroke-width:0.3985;stroke-linecap:butt;stroke-linejoin:miter;stroke-miterlimit:10;stroke-dasharray:none;stroke-opacity:1"
                       id="path258"
                       inkscape:connector-curvature="0" /></g></g></g></g></g><g
             id="g260"
             transform="translate(140.25)"><g
               id="g262"><g
                 id="g264"><g
                   id="g266"><path
                     d="M 11.73872,0 C 11.73872,6.15166 6.48318,11.13844 0,11.13844 -6.48318,11.13844 -11.73872,6.15166 -11.73872,0 c 0,-6.15166 5.25554,-11.13844 11.73872,-11.13844 6.48318,0 11.73872,4.98678 11.73872,11.13844 z"
                     style="fill:none;stroke:#000000;stroke-width:0.3985;stroke-linecap:butt;stroke-linejoin:miter;stroke-miterlimit:10;stroke-dasharray:none;stroke-opacity:1"
                     id="path268"
                     inkscape:connector-curvature="0" /><g
                     id="g270"
                     transform="translate(-4.316,-3.891)"><g
                       id="g272"><g
                         id="g274"
                         transform="translate(-376.138,-719.064)"><text
                           transform="matrix(1,0,0,-1,376.138,719.064)"
                           style="font-variant:normal;font-size:11.9552002px;font-family:'Nimbus Roman';-inkscape-font-specification:NimbusRomNo9L-Regu;writing-mode:lr-tb;fill:#000000;fill-opacity:1;fill-rule:nonzero;stroke:none"
                           id="text278"><tspan
                             x="0"
                             y="0"
                             id="tspan276">X</tspan></text>
<g
                           id="g280"
                           transform="translate(376.138,719.064)" /></g></g><g
                       id="g282"
                       transform="translate(4.316,3.891)" /></g></g><g
                   id="g284"><path
                     d="m 96.77914,0 c 0,6.15166 -5.25554,11.13844 -11.73872,11.13844 C 78.55724,11.13844 73.3017,6.15166 73.3017,0 c 0,-6.15166 5.25554,-11.13844 11.73872,-11.13844 6.48318,0 11.73872,4.98678 11.73872,11.13844 z"
                     style="fill:none;stroke:#000000;stroke-width:0.3985;stroke-linecap:butt;stroke-linejoin:miter;stroke-miterlimit:10;stroke-dasharray:none;stroke-opacity:1"
                     id="path286"
                     inkscape:connector-curvature="0" /><g
                     id="g288"
                     transform="translate(80.724,-3.891)"><g
                       id="g290"><g
                         id="g292"
                         transform="translate(-461.178,-719.064)"><text
                           transform="matrix(1,0,0,-1,461.178,719.064)"
                           style="font-variant:normal;font-size:11.9552002px;font-family:'Nimbus Roman';-inkscape-font-specification:NimbusRomNo9L-Regu;writing-mode:lr-tb;fill:#000000;fill-opacity:1;fill-rule:nonzero;stroke:none"
                           id="text296"><tspan
                             x="0"
                             y="0"
                             id="tspan294">Y</tspan></text>
<g
                           id="g298"
                           transform="translate(461.178,719.064)" /></g></g><g
                       id="g300"
                       transform="translate(-80.724,3.891)" /></g></g><g
                   id="g302"><path
                     d="m 53.32059,-85.04042 c 0,6.15166 -4.83544,11.13844 -10.80039,11.13844 -5.96495,0 -10.80038,-4.98678 -10.80038,-11.13844 0,-6.15166 4.83543,-11.13844 10.80038,-11.13844 5.96495,0 10.80039,4.98678 10.80039,11.13844 z"
                     style="fill:none;stroke:#000000;stroke-width:0.3985;stroke-linecap:butt;stroke-linejoin:miter;stroke-miterlimit:10;stroke-dasharray:none;stroke-opacity:1"
                     id="path304"
                     inkscape:connector-curvature="0" /><g
                     id="g306"
                     transform="translate(38.867,-88.93)"><g
                       id="g308"><g
                         id="g310"
                         transform="translate(-419.321,-634.025)"><text
                           transform="matrix(1,0,0,-1,419.321,634.025)"
                           style="font-variant:normal;font-size:11.9552002px;font-family:'Nimbus Roman';-inkscape-font-specification:NimbusRomNo9L-Regu;writing-mode:lr-tb;fill:#000000;fill-opacity:1;fill-rule:nonzero;stroke:none"
                           id="text314"><tspan
                             x="0"
                             y="0"
                             id="tspan312">Z</tspan></text>
<g
                           id="g316"
                           transform="translate(419.321,634.025)" /></g></g><g
                       id="g318"
                       transform="translate(-38.867,88.93)" /></g></g><g
                   id="g320"><path
                     d="m 5.12083,-10.24086 30.3113,-60.62328"
                     style="fill:none;stroke:#000000;stroke-width:0.3985;stroke-linecap:butt;stroke-linejoin:miter;stroke-miterlimit:10;stroke-dasharray:none;stroke-opacity:1"
                     id="path322"
                     inkscape:connector-curvature="0" /><g
                     id="g324"
                     transform="matrix(0.44717,-0.89436,0.89436,0.44717,35.43213,-70.86414)"><g
                       id="g326"><path
                         d="M 3.7613,0 C 3.2994,0.1127 1.26901,0.75136 0,1.44638 V -1.44638 C 1.26901,-0.75136 3.2994,-0.1127 3.7613,0 Z"
                         style="fill:#000000;fill-opacity:1;fill-rule:nonzero;stroke:#000000;stroke-width:0.3985;stroke-linecap:butt;stroke-linejoin:miter;stroke-miterlimit:10;stroke-dasharray:none;stroke-opacity:1"
                         id="path328"
                         inkscape:connector-curvature="0" /></g></g></g><g
                   id="g330"><path
                     d="M 79.91957,-10.24086 49.60828,-70.86414"
                     style="fill:none;stroke:#000000;stroke-width:0.3985;stroke-linecap:butt;stroke-linejoin:miter;stroke-miterlimit:10;stroke-dasharray:none;stroke-opacity:1"
                     id="path332"
                     inkscape:connector-curvature="0" /><g
                     id="g334"
                     transform="matrix(-0.44717,-0.89436,0.89436,-0.44717,49.60828,-70.86414)"><g
                       id="g336"><path
                         d="M 3.7613,0 C 3.2994,0.1127 1.26901,0.75136 0,1.44638 V -1.44638 C 1.26901,-0.75136 3.2994,-0.1127 3.7613,0 Z"
                         style="fill:#000000;fill-opacity:1;fill-rule:nonzero;stroke:#000000;stroke-width:0.3985;stroke-linecap:butt;stroke-linejoin:miter;stroke-miterlimit:10;stroke-dasharray:none;stroke-opacity:1"
                         id="path338"
                         inkscape:connector-curvature="0" /></g></g></g></g></g></g></g></g></g></g></svg>