<?xml version="1.0" encoding="UTF-8" standalone="no"?>
<svg
   xmlns:dc="http://purl.org/dc/elements/1.1/"
   xmlns:cc="http://creativecommons.org/ns#"
   xmlns:rdf="http://www.w3.org/1999/02/22-rdf-syntax-ns#"
   xmlns:svg="http://www.w3.org/2000/svg"
   xmlns="http://www.w3.org/2000/svg"
   viewBox="0 0 250.8266 228.81446"
   height="228.81447"
   width="250.8266"
   xml:space="preserve"
   id="svg2"
   version="1.1"><metadata
     id="metadata8"><rdf:RDF><cc:Work
         rdf:about=""><dc:format>image/svg+xml</dc:format><dc:type
           rdf:resource="http://purl.org/dc/dcmitype/StillImage" /><dc:title></dc:title></cc:Work></rdf:RDF></metadata><defs
     id="defs6"><clipPath
       id="clipPath228"
       clipPathUnits="userSpaceOnUse"><path
         id="path226"
         d="m 228.22426,0 h 171.1682 v 141.4696 h -171.1682 z" /></clipPath></defs><g
     transform="matrix(1.3333333,0,0,-1.3333333,-272.08478,973.33978)"
     id="g10"><g
       transform="translate(211.108,572.701)"
       id="g20"><g
         id="g22"><g
           id="g24"><g
             id="g26" /><g
             id="g28" /><g
             id="g30"><g
               id="g32" /></g><g
             id="g34" /><g
             id="g36" /><g
             id="g38" /><g
             id="g40" /><g
             transform="translate(-11.618,-19.284)"
             id="g42"><g
               transform="translate(-216.604,19.284)"
               id="g44"><g
                 id="g46"><g
                   id="g48"><g
                     id="g50"><g
                       id="g52"><g
                         id="g54"><path
                           id="path56"
                           style="fill:none;stroke:#808080;stroke-width:0.19925;stroke-linecap:butt;stroke-linejoin:miter;stroke-miterlimit:10;stroke-dasharray:none;stroke-opacity:1"
                           d="m 228.22426,-2.12595 v 4.2519 m 114.11212,-4.2519 v 4.2519 m 57.05608,-4.2519 v 0.46607" /><g
                           transform="rotate(90,200.52617,198.86629)"
                           id="g58"><g
                             id="g60"><path
                               id="path62"
                               style="fill:#808080;fill-opacity:1;fill-rule:nonzero;stroke:#808080;stroke-width:0.19925;stroke-linecap:butt;stroke-linejoin:miter;stroke-miterlimit:10;stroke-dasharray:none;stroke-opacity:1"
                               d="M 3.37508,0 C 2.96059,0.1 1.1387,0.6668 0,1.28358 V -1.28358 C 1.1387,-0.6668 2.96059,-0.1 3.37508,0 Z" /></g></g></g></g><g
                       id="g64"><g
                         id="g66"><path
                           id="path68"
                           style="fill:none;stroke:#808080;stroke-width:0.19925;stroke-linecap:butt;stroke-linejoin:miter;stroke-miterlimit:10;stroke-dasharray:none;stroke-opacity:1"
                           d="m 283.15422,35.3674 h 4.25218 m -4.25218,35.3674 h 4.25218 m -4.25218,35.3674 h 4.25218 m -4.25218,35.3674 h 0.46634" /><g
                           transform="translate(283.62056,141.4696)"
                           id="g70"><g
                             id="g72"><path
                               id="path74"
                               style="fill:#808080;fill-opacity:1;fill-rule:nonzero;stroke:#808080;stroke-width:0.19925;stroke-linecap:butt;stroke-linejoin:miter;stroke-miterlimit:10;stroke-dasharray:none;stroke-opacity:1"
                               d="M 3.37508,0 C 2.96059,0.1 1.1387,0.6668 0,1.28358 V -1.28358 C 1.1387,-0.6668 2.96059,-0.1 3.37508,0 Z" /></g></g></g></g><path
                       id="path76"
                       style="fill:none;stroke:#000000;stroke-width:0.3985;stroke-linecap:butt;stroke-linejoin:miter;stroke-miterlimit:10;stroke-dasharray:none;stroke-opacity:1"
                       d="M 228.22426,0 H 397.39993" /><g
                       transform="translate(397.39993)"
                       id="g78"><g
                         id="g80"><path
                           id="path82"
                           style="fill:#000000;fill-opacity:1;fill-rule:nonzero;stroke:none"
                           d="M 1.99252,0 -1.19551,1.59401 0,0 -1.19551,-1.59401" /></g></g><path
                       id="path84"
                       style="fill:none;stroke:#000000;stroke-width:0.3985;stroke-linecap:butt;stroke-linejoin:miter;stroke-miterlimit:10;stroke-dasharray:none;stroke-opacity:1"
                       d="M 285.28032,0 V 139.47708" /><g
                       transform="rotate(90,72.90162,212.3787)"
                       id="g86"><g
                         id="g88"><path
                           id="path90"
                           style="fill:#000000;fill-opacity:1;fill-rule:nonzero;stroke:none"
                           d="M 1.99252,0 -1.19551,1.59401 0,0 -1.19551,-1.59401" /></g></g><g
                       id="g92"><g
                         transform="translate(220.588,-14.307)"
                         id="g94"><g
                           id="g96"><g
                             transform="translate(-203.474,-558.394)"
                             id="g98"><text
                               id="text102"
                               style="font-variant:normal;font-weight:normal;font-size:11.9552002px;font-family:CMSY10;-inkscape-font-specification:CMSY10;writing-mode:lr-tb;fill:#000000;fill-opacity:1;fill-rule:nonzero;stroke:none"
                               transform="matrix(1,0,0,-1,203.474,558.394)"><tspan
                                 id="tspan100"
                                 y="0"
                                 x="0">−</tspan></text>
<text
                               id="text106"
                               style="font-variant:normal;font-size:11.9552002px;font-family:'Nimbus Roman';-inkscape-font-specification:NimbusRomNo9L-Regu;writing-mode:lr-tb;fill:#000000;fill-opacity:1;fill-rule:nonzero;stroke:none"
                               transform="matrix(1,0,0,-1,212.763,558.394)"><tspan
                                 id="tspan104"
                                 y="0"
                                 x="0">1</tspan></text>
<g
                               transform="translate(203.474,558.394)"
                               id="g108" /></g></g><g
                           transform="translate(-220.588,14.307)"
                           id="g110" /></g></g><g
                       id="g112"><g
                         transform="translate(339.343,-14.307)"
                         id="g114"><g
                           id="g116"><g
                             transform="translate(-322.229,-558.394)"
                             id="g118"><text
                               id="text122"
                               style="font-variant:normal;font-size:11.9552002px;font-family:'Nimbus Roman';-inkscape-font-specification:NimbusRomNo9L-Regu;writing-mode:lr-tb;fill:#000000;fill-opacity:1;fill-rule:nonzero;stroke:none"
                               transform="matrix(1,0,0,-1,322.229,558.394)"><tspan
                                 id="tspan120"
                                 y="0"
                                 x="0">1</tspan></text>
<g
                               transform="translate(322.229,558.394)"
                               id="g124" /></g></g><g
                           transform="translate(-339.343,14.307)"
                           id="g126" /></g></g><g
                       id="g128"><g
                         transform="translate(396.399,-14.307)"
                         id="g130"><g
                           id="g132"><g
                             transform="translate(-379.285,-558.394)"
                             id="g134"><text
                               id="text138"
                               style="font-variant:normal;font-size:11.9552002px;font-family:'Nimbus Roman';-inkscape-font-specification:NimbusRomNo9L-Regu;writing-mode:lr-tb;fill:#000000;fill-opacity:1;fill-rule:nonzero;stroke:none"
                               transform="matrix(1,0,0,-1,379.285,558.394)"><tspan
                                 id="tspan136"
                                 y="0"
                                 x="0">2</tspan></text>
<g
                               transform="translate(379.285,558.394)"
                               id="g140" /></g></g><g
                           transform="translate(-396.399,14.307)"
                           id="g142" /></g></g><g
                       id="g144"><g
                         transform="translate(263.7,31.377)"
                         id="g146"><g
                           id="g148"><g
                             transform="translate(-246.586,-604.078)"
                             id="g150"><text
                               id="text154"
                               style="font-variant:normal;font-size:11.9552002px;font-family:'Nimbus Roman';-inkscape-font-specification:NimbusRomNo9L-Regu;writing-mode:lr-tb;fill:#000000;fill-opacity:1;fill-rule:nonzero;stroke:none"
                               transform="matrix(1,0,0,-1,246.586,604.078)"><tspan
                                 id="tspan152"
                                 y="0"
                                 x="0">0</tspan></text>
<text
                               id="text158"
                               style="font-variant:normal;font-weight:normal;font-size:11.9552002px;font-family:CMMI10;-inkscape-font-specification:CMMI10;writing-mode:lr-tb;fill:#000000;fill-opacity:1;fill-rule:nonzero;stroke:none"
                               transform="matrix(1,0,0,-1,252.564,604.078)"><tspan
                                 id="tspan156"
                                 y="0"
                                 x="0">.</tspan></text>
<text
                               id="text162"
                               style="font-variant:normal;font-size:11.9552002px;font-family:'Nimbus Roman';-inkscape-font-specification:NimbusRomNo9L-Regu;writing-mode:lr-tb;fill:#000000;fill-opacity:1;fill-rule:nonzero;stroke:none"
                               transform="matrix(1,0,0,-1,255.875,604.078)"><tspan
                                 id="tspan160"
                                 y="0"
                                 x="0">5</tspan></text>
<g
                               transform="translate(246.586,604.078)"
                               id="g164" /></g></g><g
                           transform="translate(-263.7,-31.377)"
                           id="g166" /></g></g><g
                       id="g168"><g
                         transform="translate(272.989,66.735)"
                         id="g170"><g
                           id="g172"><g
                             transform="translate(-255.875,-639.436)"
                             id="g174"><text
                               id="text178"
                               style="font-variant:normal;font-size:11.9552002px;font-family:'Nimbus Roman';-inkscape-font-specification:NimbusRomNo9L-Regu;writing-mode:lr-tb;fill:#000000;fill-opacity:1;fill-rule:nonzero;stroke:none"
                               transform="matrix(1,0,0,-1,255.875,639.436)"><tspan
                                 id="tspan176"
                                 y="0"
                                 x="0">1</tspan></text>
<g
                               transform="translate(255.875,639.436)"
                               id="g180" /></g></g><g
                           transform="translate(-272.989,-66.735)"
                           id="g182" /></g></g><g
                       id="g184"><g
                         transform="translate(263.7,102.111)"
                         id="g186"><g
                           id="g188"><g
                             transform="translate(-246.586,-674.812)"
                             id="g190"><text
                               id="text194"
                               style="font-variant:normal;font-size:11.9552002px;font-family:'Nimbus Roman';-inkscape-font-specification:NimbusRomNo9L-Regu;writing-mode:lr-tb;fill:#000000;fill-opacity:1;fill-rule:nonzero;stroke:none"
                               transform="matrix(1,0,0,-1,246.586,674.812)"><tspan
                                 id="tspan192"
                                 y="0"
                                 x="0">1</tspan></text>
<text
                               id="text198"
                               style="font-variant:normal;font-weight:normal;font-size:11.9552002px;font-family:CMMI10;-inkscape-font-specification:CMMI10;writing-mode:lr-tb;fill:#000000;fill-opacity:1;fill-rule:nonzero;stroke:none"
                               transform="matrix(1,0,0,-1,252.564,674.812)"><tspan
                                 id="tspan196"
                                 y="0"
                                 x="0">.</tspan></text>
<text
                               id="text202"
                               style="font-variant:normal;font-size:11.9552002px;font-family:'Nimbus Roman';-inkscape-font-specification:NimbusRomNo9L-Regu;writing-mode:lr-tb;fill:#000000;fill-opacity:1;fill-rule:nonzero;stroke:none"
                               transform="matrix(1,0,0,-1,255.875,674.812)"><tspan
                                 id="tspan200"
                                 y="0"
                                 x="0">5</tspan></text>
<g
                               transform="translate(246.586,674.812)"
                               id="g204" /></g></g><g
                           transform="translate(-263.7,-102.111)"
                           id="g206" /></g></g><g
                       id="g208"><g
                         transform="translate(272.989,137.469)"
                         id="g210"><g
                           id="g212"><g
                             transform="translate(-255.875,-710.17)"
                             id="g214"><text
                               id="text218"
                               style="font-variant:normal;font-size:11.9552002px;font-family:'Nimbus Roman';-inkscape-font-specification:NimbusRomNo9L-Regu;writing-mode:lr-tb;fill:#000000;fill-opacity:1;fill-rule:nonzero;stroke:none"
                               transform="matrix(1,0,0,-1,255.875,710.17)"><tspan
                                 id="tspan216"
                                 y="0"
                                 x="0">2</tspan></text>
<g
                               transform="translate(255.875,710.17)"
                               id="g220" /></g></g><g
                           transform="translate(-272.989,-137.469)"
                           id="g222" /></g></g><g
                       clip-path="url(#clipPath228)"
                       id="g224"><g
                         id="g230"><path
                           id="path232"
                           style="fill:none;stroke:#000000;stroke-width:1.59404004;stroke-linecap:butt;stroke-linejoin:miter;stroke-miterlimit:10;stroke-dasharray:none;stroke-opacity:1"
                           d="m 0,0 h 1.14339 1.1434 1.1434 1.14341 1.1434 1.1434 1.1434 1.1434 1.1434 1.1434 1.14341 1.1434 1.1434 1.1434 1.14341 1.1434 1.1434 1.1434 1.1434 1.14341 1.1434 1.14342 1.1434 1.1434 1.1434 1.1434 1.14341 1.1434 1.1434 1.1434 1.14339 1.1434 1.1434 1.14341 1.1434 1.1434 1.1434 1.1434 1.14341 1.1434 1.1434 1.1434 1.14341 1.14342 1.1434 1.1434 1.1434 1.1434 1.1434 1.1434 1.1434 1.14341 1.1434 1.1434 1.14341 1.1434 1.1434 1.1434 1.1434 1.14341 1.1434 1.14338 1.14341 1.1434 1.1434 1.14342 1.1434 1.1434 1.1434 1.14341 1.1434 1.1434 1.1434 1.14341 1.1434 1.1434 1.1434 1.1434 1.14341 1.1434 1.1434 1.1434 1.1434 1.14341 1.1434 1.1434 1.1434 1.14342 1.1434 1.1434 1.1434 1.1434 1.1434 1.1434 1.1434 1.1434 1.1434 1.1434 1.14341 1.1434 1.1434 1.1434 1.14341 1.1434 1.1434 1.1434 1.1434 1.14341 1.1434 1.14342 1.1434 1.1434 1.1434 1.1434 1.14341 1.1434 1.1434 1.1434 1.14341 1.1434 1.1434 1.1434 1.14339 1.1434 1.1434 1.1434 1.14341 1.1434 1.1434 1.1434 1.14341 1.14342 1.1434 1.1434 1.1434 1.1434 1.1434 1.1434 1.1434 1.14341 1.1434 1.1434 1.14341 1.1434 1.1434 1.1434 1.1434 1.14341 1.1434 1.1434 1.1434 1.1434 1.14339 1.14342 1.1434 1.1434 1.1434 1.14341 1.1434 1.1434 1.1434 1.14341 1.1434 1.1434 1.1434 1.1434 1.14341 1.1434 1.1434 1.1434 1.1434 1.14341 1.1434 1.1434 1.1434 1.14342 1.1434 1.1434 1.1434 1.14341 1.1434 1.1434 1.1434 1.14339 1.1434 1.1434 1.14341 1.1434 1.1434 1.1434 1.14341 1.1434 1.1434 1.1434 1.1434 1.14341 1.1434 1.14342 1.1434 1.1434 1.1434 1.1434 1.14341 1.1434 1.1434 1.1434 1.14341 1.14341 1.1434 1.14341 1.1434 1.1434 1.14341 1.14338 1.1434 1.1434 1.14342 1.1434 1.1434 1.14341 1.1434 1.1434 1.1434 1.14341 1.1434 1.14342 1.1434 1.1434 1.1434 1.1434 1.14341 1.1434 1.1434 1.1434 1.1434 1.14342 1.1434 1.14341 1.1434 1.1434 1.1434 1.1434 1.14341 1.14338 1.14341 1.14342 1.1434 1.1434 1.1434 l 1.1434,0.70699 1.1434,1.41754 1.1434,1.41752 1.1434,1.41753 1.14342,1.41752 1.14341,1.41753 1.1434,1.41751 1.1434,1.41753 1.1434,1.41753 1.14341,1.41752 1.1434,1.41753 1.1434,1.41752 1.1434,1.41753 1.1434,1.41753 1.14342,1.41752 1.1434,1.41753 1.14341,1.41752 1.1434,1.41752 1.1434,1.41752 1.1434,1.41753 1.1434,1.41753 1.14341,1.41754 1.1434,1.41752 1.14342,1.41751 1.1434,1.41753 1.14338,1.41753 1.14341,1.41752 1.1434,1.41753 1.1434,1.41752 1.14341,1.41752 1.1434,1.41752 1.1434,1.41753 1.1434,1.41754 1.14342,1.41753 1.1434,1.41752 1.1434,1.41751 1.1434,1.41753 1.1434,1.41753 1.14341,1.41752 1.1434,1.41753 1.1434,1.41752 1.1434,1.41753 1.14342,1.41753 1.1434,1.41752 1.1434,1.41753 1.14341,1.41753 1.1434,1.41752 1.1434,1.41751 1.1434,1.41753 1.14341,1.41753 1.1434,1.41752 1.1434,1.41753 1.1434,1.41752 1.1434,1.41752 1.14341,1.41752 1.14338,1.41753 1.1434,1.41753 1.14341,1.41752 1.1434,1.41753 1.1434,1.41751 1.1434,1.41752 1.14341,1.41753 1.1434,1.41753 1.1434,1.41752 1.14342,1.41753 1.1434,1.41751 1.1434,1.41753 1.1434,1.41752 1.1434,1.41753 1.1434,1.41752 1.14341,1.41753 1.1434,1.41751 1.1434,1.41753 1.14341,1.41753 1.1434,1.41752 1.1434,1.41753 1.1434,1.41752 1.1434,1.41751 1.14341,1.41753 1.1434,1.41753 1.1434,1.41752 1.1434,1.41753 1.1434,1.41753 1.14341,1.41752 1.1434,1.41753 1.1434,1.41753 1.1434,1.41752 1.1434,1.41753 1.14341,1.41752 1.1434,1.41751 1.1434,1.41753 1.1434,1.41753 1.14341,1.41752 1.1434,1.41753 1.1434,1.41753 1.1434,1.41751 1.1434,1.41752 1.14341,1.41753 1.1434,1.41752 1.1434,1.41753 1.1434,1.41751 1.1434,1.41753 1.14341,1.41753 1.1434,1.41752 1.1434,1.41753 1.1434,1.41752 1.1434,1.41751 1.14341,1.41753 1.14341,1.41753 1.1434,1.41752 1.14341,1.41753 1.1434,1.41753 1.1434,1.41751 1.1434,1.41752 1.14341,1.41753 1.1434,1.41752 1.14338,1.41753 1.14341,1.41753 1.1434,1.41751 1.1434,1.41753 1.1434,1.41752 1.14341,1.41753 1.1434,1.41752 1.1434,1.41753 1.1434,1.41751 1.1434,1.41753 1.14341,1.41752 1.1434,1.41753 1.1434,1.41753 1.1434,1.41752 1.14342,1.41751 1.1434,1.41753 1.1434,1.41752 1.14341,1.41753 1.1434,1.41753 1.1434,1.41752 1.1434,1.41752 1.14341,1.41752 1.1434,1.41753 1.1434,1.41754 1.1434,1.41753 1.1434,1.41752 1.14341,1.41751 1.1434,1.41753 1.1434,1.41752 1.1434,1.41753 1.1434,1.41753 1.14339,1.41752 1.1434,1.41752 1.14341,1.41752 1.1434,1.41753 1.1434,1.41752 1.14342,1.41753 1.1434,1.41753 1.1434,1.41751 1.1434,1.41752 1.1434,1.41753 1.1434,1.41753 1.14341,1.41752 1.1434,1.41753 1.1434,1.41751 1.14341,1.41752 1.1434,1.41753 1.1434,1.41753 1.1434,1.41752 1.1434,1.41753 1.14341,1.41751 1.1434,1.41753 1.1434,1.41752 1.1434,1.41753 1.1434,1.41753 1.14341,1.41752 1.1434,1.41751 1.1434,1.41753 1.14342,1.41753 1.1434,1.41752 1.1434,1.41753 1.14339,1.41753 1.1434,1.4175 1.1434,1.41753 1.14341,1.41753 1.1434,1.41752 1.1434,1.41753 1.1434,1.41753 1.1434,1.41751 1.14341,1.41752 1.1434,1.41753 1.1434,1.41753 1.1434,1.41752 1.1434,1.41753 1.14341,1.41751 1.1434,1.41753 1.1434,1.41752 1.1434,1.41753 1.1434,1.41753 1.14341,1.41752 1.14341,1.41753 1.1434,1.41752 1.14341,1.41753 1.1434,1.41753 1.1434,1.41752 1.1434,1.41751 1.14341,1.41753 1.1434,1.41753 1.1434,1.41752 1.1434,1.41753 1.14341,1.41753 1.1434,1.4175 1.14338,1.41753 1.14341,1.41753 1.1434,1.41752 1.1434,1.41753 1.1434,1.41753 1.1434,1.41751 1.14341,1.41752 1.1434,1.41753 1.1434,1.41753 1.1434,1.41752 1.14342,1.41753 1.1434,1.41751 1.1434,1.41753 1.14341,1.41752 1.1434,1.41753 1.1434,1.41753 1.1434,1.41752 1.14341,1.41751 1.1434,1.41753 1.1434,1.41753 1.1434,1.41752 1.1434,1.41753 1.14341,1.41752 1.1434,1.41752 1.1434,1.41752 1.1434,1.41753 1.1434,1.41752 1.14341,1.41753 1.1434,1.41752 1.1434,1.41752 1.14339,1.41752 1.1434,1.41753 1.14342,1.41753 1.1434,1.41752 1.1434,1.41753 1.1434,1.41751 1.1434,1.41753 1.1434,1.41752 1.14341,1.41753 1.1434,1.41752 1.1434,1.41753 -4.73602,-5.87146" /><g
                           transform="matrix(0.6278,0.77832,-0.77832,0.6278,564.67839,346.38152)"
                           id="g234"><g
                             id="g236"><path
                               id="path238"
                               style="fill:#000000;fill-opacity:1;fill-rule:nonzero;stroke:#000000;stroke-width:1.59404004;stroke-linecap:butt;stroke-linejoin:miter;stroke-miterlimit:10;stroke-dasharray:none;stroke-opacity:1"
                               d="M 6.07884,0 C 5.33234,0.18881 2.0509,1.25874 0,2.4231 V -2.4231 C 2.0509,-1.25874 5.33234,-0.18881 6.07884,0 Z" /></g></g></g></g></g><g
                     id="g240"><g
                       transform="translate(403.571,-2.531)"
                       id="g242"><g
                         id="g244"><g
                           transform="translate(-386.457,-570.17)"
                           id="g246"><text
                             id="text250"
                             style="font-variant:normal;font-size:11.9552002px;font-family:'Nimbus Roman';-inkscape-font-specification:NimbusRomNo9L-ReguItal;writing-mode:lr-tb;fill:#000000;fill-opacity:1;fill-rule:nonzero;stroke:none"
                             transform="matrix(1,0,0,-1,386.457,570.17)"><tspan
                               id="tspan248"
                               y="0"
                               x="0">x</tspan></text>
<g
                             transform="translate(386.457,570.17)"
                             id="g252" /></g></g><g
                         transform="translate(-403.571,2.531)"
                         id="g254" /></g></g><g
                     id="g256"><g
                       transform="translate(263.357,148.641)"
                       id="g258"><g
                         id="g260"><g
                           transform="translate(-246.243,-721.342)"
                           id="g262"><text
                             id="text266"
                             style="font-variant:normal;font-size:11.9552002px;font-family:'Nimbus Roman';-inkscape-font-specification:NimbusRomNo9L-Regu;writing-mode:lr-tb;fill:#000000;fill-opacity:1;fill-rule:nonzero;stroke:none"
                             transform="matrix(1,0,0,-1,246.243,721.342)"><tspan
                               id="tspan264"
                               y="0"
                               x="0 7.9741182 13.282228 20.586855">ReLU</tspan></text>
<text
                             id="text270"
                             style="font-variant:normal;font-weight:normal;font-size:11.9552002px;font-family:CMR10;-inkscape-font-specification:CMR10;writing-mode:lr-tb;fill:#000000;fill-opacity:1;fill-rule:nonzero;stroke:none"
                             transform="matrix(1,0,0,-1,275.462,721.342)"><tspan
                               id="tspan268"
                               y="0"
                               x="0">(</tspan></text>
<text
                             id="text274"
                             style="font-variant:normal;font-size:11.9552002px;font-family:'Nimbus Roman';-inkscape-font-specification:NimbusRomNo9L-ReguItal;writing-mode:lr-tb;fill:#000000;fill-opacity:1;fill-rule:nonzero;stroke:none"
                             transform="matrix(1,0,0,-1,280.1,721.342)"><tspan
                               id="tspan272"
                               y="0"
                               x="0">x</tspan></text>
<text
                             id="text278"
                             style="font-variant:normal;font-weight:normal;font-size:11.9552002px;font-family:CMR10;-inkscape-font-specification:CMR10;writing-mode:lr-tb;fill:#000000;fill-opacity:1;fill-rule:nonzero;stroke:none"
                             transform="matrix(1,0,0,-1,285.444,721.342)"><tspan
                               id="tspan276"
                               y="0"
                               x="0">)</tspan></text>
<g
                             transform="translate(246.243,721.342)"
                             id="g280" /></g></g><g
                         transform="translate(-263.357,-148.641)"
                         id="g282" /></g></g></g></g><g
                 transform="translate(216.604,-19.284)"
                 id="g284" /></g><g
               transform="translate(11.618,19.284)"
               id="g286" /></g><g
             id="g288" /><g
             id="g290" /></g></g></g></g></svg>