<?xml version="1.0" encoding="UTF-8" standalone="no"?>
<svg
   xmlns:dc="http://purl.org/dc/elements/1.1/"
   xmlns:cc="http://creativecommons.org/ns#"
   xmlns:rdf="http://www.w3.org/1999/02/22-rdf-syntax-ns#"
   xmlns:svg="http://www.w3.org/2000/svg"
   xmlns="http://www.w3.org/2000/svg"
   viewBox="0 0 479.45114 143.62106"
   height="143.62106"
   width="479.45114"
   xml:space="preserve"
   id="svg2"
   version="1.1"><metadata
     id="metadata8"><rdf:RDF><cc:Work
         rdf:about=""><dc:format>image/svg+xml</dc:format><dc:type
           rdf:resource="http://purl.org/dc/dcmitype/StillImage" /><dc:title></dc:title></cc:Work></rdf:RDF></metadata><defs
     id="defs6" /><g
     transform="scale(1.3333333)"
     id="g10"><g
       id="g12"><g
         transform="scale(1,-1)"
         id="g14"><path
           id="path16"
           style="fill:none;stroke:#000000;stroke-width:0.3985;stroke-linecap:butt;stroke-linejoin:miter;stroke-miterlimit:10;stroke-dasharray:none;stroke-opacity:1"
           d="m 23.676,-11.336 c 0,6.148 -5.254,11.137 -11.738,11.137 -6.485,0 -11.739,-4.989 -11.739,-11.137 0,-6.152 5.254,-11.141 11.739,-11.141 6.484,0 11.738,4.989 11.738,11.141 z" /></g><text
         id="text20"
         style="font-variant:normal;font-weight:normal;font-size:11.9552002px;font-family:'Nimbus Roman';-inkscape-font-specification:NimbusRoman-Regular;writing-mode:lr-tb;fill:#000000;fill-opacity:1;fill-rule:nonzero;stroke:none"
         transform="translate(7.621969,15.228693)"><tspan
           id="tspan18"
           y="0"
           x="0">X</tspan></text>
<g
         transform="scale(1,-1)"
         id="g22"><path
           id="path24"
           style="fill:none;stroke:#000000;stroke-width:0.3985;stroke-linecap:butt;stroke-linejoin:miter;stroke-miterlimit:10;stroke-dasharray:none;stroke-opacity:1"
           d="m 22.738,-53.859 c 0,6.152 -4.836,11.14 -10.8,11.14 -5.965,0 -10.801,-4.988 -10.801,-11.14 0,-6.149 4.836,-11.137 10.801,-11.137 5.964,0 10.8,4.988 10.8,11.137 z" /></g><text
         id="text28"
         style="font-variant:normal;font-weight:normal;font-size:11.9552002px;font-family:'Nimbus Roman';-inkscape-font-specification:NimbusRoman-Regular;writing-mode:lr-tb;fill:#000000;fill-opacity:1;fill-rule:nonzero;stroke:none"
         transform="translate(8.285969,57.748692)"><tspan
           id="tspan26"
           y="0"
           x="0">Z</tspan></text>
<g
         transform="scale(1,-1)"
         id="g30"><path
           id="path32"
           style="fill:none;stroke:#000000;stroke-width:0.3985;stroke-linecap:butt;stroke-linejoin:miter;stroke-miterlimit:10;stroke-dasharray:none;stroke-opacity:1"
           d="m 23.676,-96.379 c 0,6.152 -5.254,11.141 -11.738,11.141 -6.485,0 -11.739,-4.989 -11.739,-11.141 0,-6.152 5.254,-11.137 11.739,-11.137 6.484,0 11.738,4.985 11.738,11.137 z" /></g><text
         id="text36"
         style="font-variant:normal;font-weight:normal;font-size:11.9552002px;font-family:'Nimbus Roman';-inkscape-font-specification:NimbusRoman-Regular;writing-mode:lr-tb;fill:#000000;fill-opacity:1;fill-rule:nonzero;stroke:none"
         transform="translate(7.621969,100.26769)"><tspan
           id="tspan34"
           y="0"
           x="0">Y</tspan></text>
<g
         transform="scale(1,-1)"
         id="g38"><path
           id="path40"
           style="fill:none;stroke:#000000;stroke-width:0.3985;stroke-linecap:butt;stroke-linejoin:miter;stroke-miterlimit:10;stroke-dasharray:none;stroke-opacity:1"
           d="M 11.938,-22.676 V -37.938" /></g><g
         transform="matrix(0,1,1,0,0,0)"
         id="g42"><path
           id="path44"
           style="fill:#000000;fill-opacity:1;fill-rule:nonzero;stroke:#000000;stroke-width:0.3985;stroke-linecap:butt;stroke-linejoin:miter;stroke-miterlimit:10;stroke-dasharray:none;stroke-opacity:1"
           d="m 41.699,11.937 c -0.461,0.114 -2.492,0.75 -3.761,1.446 v -2.891 c 1.269,0.695 3.3,1.332 3.761,1.445 z" /></g><g
         transform="scale(1,-1)"
         id="g46"><path
           id="path48"
           style="fill:none;stroke:#000000;stroke-width:0.3985;stroke-linecap:butt;stroke-linejoin:miter;stroke-miterlimit:10;stroke-dasharray:none;stroke-opacity:1"
           d="M 11.938,-65.195 V -80.457" /></g><g
         transform="matrix(0,1,1,0,0,0)"
         id="g50"><path
           id="path52"
           style="fill:#000000;fill-opacity:1;fill-rule:nonzero;stroke:#000000;stroke-width:0.3985;stroke-linecap:butt;stroke-linejoin:miter;stroke-miterlimit:10;stroke-dasharray:none;stroke-opacity:1"
           d="m 84.219,11.937 c -0.461,0.114 -2.492,0.75 -3.762,1.446 v -2.891 c 1.27,0.695 3.301,1.332 3.762,1.445 z" /></g><g
         transform="scale(1,-1)"
         id="g54"><path
           id="path56"
           style="fill:none;stroke:#000000;stroke-width:0.3985;stroke-linecap:butt;stroke-linejoin:miter;stroke-miterlimit:10;stroke-dasharray:none;stroke-opacity:1"
           d="m 78.887,-11.336 c 0,6.148 -5.254,11.137 -11.739,11.137 -6.484,0 -11.738,-4.989 -11.738,-11.137 0,-6.152 5.254,-11.141 11.738,-11.141 6.485,0 11.739,4.989 11.739,11.141 z" /></g><text
         id="text60"
         style="font-variant:normal;font-weight:normal;font-size:11.9552002px;font-family:'Nimbus Roman';-inkscape-font-specification:NimbusRoman-Regular;writing-mode:lr-tb;fill:#000000;fill-opacity:1;fill-rule:nonzero;stroke:none"
         transform="translate(62.832968,15.228693)"><tspan
           id="tspan58"
           y="0"
           x="0">Y</tspan></text>
<g
         transform="scale(1,-1)"
         id="g62"><path
           id="path64"
           style="fill:none;stroke:#000000;stroke-width:0.3985;stroke-linecap:butt;stroke-linejoin:miter;stroke-miterlimit:10;stroke-dasharray:none;stroke-opacity:1"
           d="m 77.949,-53.859 c 0,6.152 -4.836,11.14 -10.801,11.14 -5.964,0 -10.8,-4.988 -10.8,-11.14 0,-6.149 4.836,-11.137 10.8,-11.137 5.965,0 10.801,4.988 10.801,11.137 z" /></g><text
         id="text68"
         style="font-variant:normal;font-weight:normal;font-size:11.9552002px;font-family:'Nimbus Roman';-inkscape-font-specification:NimbusRoman-Regular;writing-mode:lr-tb;fill:#000000;fill-opacity:1;fill-rule:nonzero;stroke:none"
         transform="translate(63.496968,57.748692)"><tspan
           id="tspan66"
           y="0"
           x="0">Z</tspan></text>
<g
         transform="scale(1,-1)"
         id="g70"><path
           id="path72"
           style="fill:none;stroke:#000000;stroke-width:0.3985;stroke-linecap:butt;stroke-linejoin:miter;stroke-miterlimit:10;stroke-dasharray:none;stroke-opacity:1"
           d="m 78.887,-96.379 c 0,6.152 -5.254,11.141 -11.739,11.141 -6.484,0 -11.738,-4.989 -11.738,-11.141 0,-6.152 5.254,-11.137 11.738,-11.137 6.485,0 11.739,4.985 11.739,11.137 z" /></g><text
         id="text76"
         style="font-variant:normal;font-weight:normal;font-size:11.9552002px;font-family:'Nimbus Roman';-inkscape-font-specification:NimbusRoman-Regular;writing-mode:lr-tb;fill:#000000;fill-opacity:1;fill-rule:nonzero;stroke:none"
         transform="translate(62.832968,100.26769)"><tspan
           id="tspan74"
           y="0"
           x="0">X</tspan></text>
<g
         transform="scale(1,-1)"
         id="g78"><path
           id="path80"
           style="fill:none;stroke:#000000;stroke-width:0.3985;stroke-linecap:butt;stroke-linejoin:miter;stroke-miterlimit:10;stroke-dasharray:none;stroke-opacity:1"
           d="m 67.148,-85.039 v 15.262" /></g><g
         transform="matrix(0,-1,-1,0,0,0)"
         id="g82"><path
           id="path84"
           style="fill:#000000;fill-opacity:1;fill-rule:nonzero;stroke:#000000;stroke-width:0.3985;stroke-linecap:butt;stroke-linejoin:miter;stroke-miterlimit:10;stroke-dasharray:none;stroke-opacity:1"
           d="m -66.016,-67.148 c -0.464,0.113 -2.492,0.75 -3.761,1.445 v -2.891 c 1.269,0.696 3.297,1.332 3.761,1.446 z" /></g><g
         transform="scale(1,-1)"
         id="g86"><path
           id="path88"
           style="fill:none;stroke:#000000;stroke-width:0.3985;stroke-linecap:butt;stroke-linejoin:miter;stroke-miterlimit:10;stroke-dasharray:none;stroke-opacity:1"
           d="m 67.148,-42.52 v 15.262" /></g><g
         transform="matrix(0,-1,-1,0,0,0)"
         id="g90"><path
           id="path92"
           style="fill:#000000;fill-opacity:1;fill-rule:nonzero;stroke:#000000;stroke-width:0.3985;stroke-linecap:butt;stroke-linejoin:miter;stroke-miterlimit:10;stroke-dasharray:none;stroke-opacity:1"
           d="m -23.496,-67.148 c -0.461,0.113 -2.492,0.75 -3.762,1.445 v -2.891 c 1.27,0.696 3.301,1.332 3.762,1.446 z" /></g><g
         transform="scale(1,-1)"
         id="g94"><path
           id="path96"
           style="fill:none;stroke:#000000;stroke-width:0.3985;stroke-linecap:butt;stroke-linejoin:miter;stroke-miterlimit:10;stroke-dasharray:none;stroke-opacity:1"
           d="m 134.098,-11.336 c 0,6.148 -5.254,11.137 -11.739,11.137 -6.484,0 -11.738,-4.989 -11.738,-11.137 0,-6.152 5.254,-11.141 11.738,-11.141 6.485,0 11.739,4.989 11.739,11.141 z" /></g><text
         id="text100"
         style="font-variant:normal;font-weight:normal;font-size:11.9552002px;font-family:'Nimbus Roman';-inkscape-font-specification:NimbusRoman-Regular;writing-mode:lr-tb;fill:#000000;fill-opacity:1;fill-rule:nonzero;stroke:none"
         transform="translate(118.04397,15.228693)"><tspan
           id="tspan98"
           y="0"
           x="0">X</tspan></text>
<g
         transform="scale(1,-1)"
         id="g102"><path
           id="path104"
           style="fill:none;stroke:#000000;stroke-width:0.3985;stroke-linecap:butt;stroke-linejoin:miter;stroke-miterlimit:10;stroke-dasharray:none;stroke-opacity:1"
           d="m 219.141,-11.336 c 0,6.148 -5.258,11.137 -11.743,11.137 -6.48,0 -11.738,-4.989 -11.738,-11.137 0,-6.152 5.258,-11.141 11.738,-11.141 6.485,0 11.743,4.989 11.743,11.141 z" /></g><text
         id="text108"
         style="font-variant:normal;font-weight:normal;font-size:11.9552002px;font-family:'Nimbus Roman';-inkscape-font-specification:NimbusRoman-Regular;writing-mode:lr-tb;fill:#000000;fill-opacity:1;fill-rule:nonzero;stroke:none"
         transform="translate(203.08296,15.228693)"><tspan
           id="tspan106"
           y="0"
           x="0">Y</tspan></text>
<g
         transform="scale(1,-1)"
         id="g110"><path
           id="path112"
           style="fill:none;stroke:#000000;stroke-width:0.3985;stroke-linecap:butt;stroke-linejoin:miter;stroke-miterlimit:10;stroke-dasharray:none;stroke-opacity:1"
           d="m 175.68,-96.379 c 0,6.152 -4.836,11.141 -10.801,11.141 -5.965,0 -10.801,-4.989 -10.801,-11.141 0,-6.152 4.836,-11.137 10.801,-11.137 5.965,0 10.801,4.985 10.801,11.137 z" /></g><text
         id="text116"
         style="font-variant:normal;font-weight:normal;font-size:11.9552002px;font-family:'Nimbus Roman';-inkscape-font-specification:NimbusRoman-Regular;writing-mode:lr-tb;fill:#000000;fill-opacity:1;fill-rule:nonzero;stroke:none"
         transform="translate(161.22697,100.26769)"><tspan
           id="tspan114"
           y="0"
           x="0">Z</tspan></text>
<g
         transform="scale(1,-1)"
         id="g118"><path
           id="path120"
           style="fill:none;stroke:#000000;stroke-width:0.3985;stroke-linecap:butt;stroke-linejoin:miter;stroke-miterlimit:10;stroke-dasharray:none;stroke-opacity:1"
           d="m 159.84,-86.301 -30.309,60.625" /></g><g
         transform="matrix(-0.499989,-1,-1,0.499989,0,0)"
         id="g122"><path
           id="path124"
           style="fill:#000000;fill-opacity:1;fill-rule:nonzero;stroke:#000000;stroke-width:0.35640201;stroke-linecap:butt;stroke-linejoin:miter;stroke-miterlimit:10;stroke-dasharray:none;stroke-opacity:1"
           d="m -68.989,-93.354 c -0.414,0.101 -2.229,0.673 -3.365,1.292 v -2.586 c 1.136,0.624 2.951,1.192 3.365,1.294 z" /></g><g
         transform="scale(1,-1)"
         id="g126"><path
           id="path128"
           style="fill:none;stroke:#000000;stroke-width:0.3985;stroke-linecap:butt;stroke-linejoin:miter;stroke-miterlimit:10;stroke-dasharray:none;stroke-opacity:1"
           d="m 169.918,-86.301 30.312,60.625" /></g><g
         transform="matrix(0.499989,-1,-1,-0.499989,0,0)"
         id="g130"><path
           id="path132"
           style="fill:#000000;fill-opacity:1;fill-rule:nonzero;stroke:#000000;stroke-width:0.35640201;stroke-linecap:butt;stroke-linejoin:miter;stroke-miterlimit:10;stroke-dasharray:none;stroke-opacity:1"
           d="m 62.914,-170.458 c -0.414,0.102 -2.231,0.674 -3.365,1.294 v -2.586 c 1.134,0.622 2.95,1.194 3.365,1.292 z" /></g><g
         transform="scale(1,-1)"
         id="g134"><path
           id="path136"
           style="fill:none;stroke:#000000;stroke-width:0.3985;stroke-linecap:butt;stroke-linejoin:miter;stroke-miterlimit:10;stroke-dasharray:none;stroke-opacity:1"
           d="m 274.348,-11.336 c 0,6.148 -5.254,11.137 -11.739,11.137 -6.484,0 -11.738,-4.989 -11.738,-11.137 0,-6.152 5.254,-11.141 11.738,-11.141 6.485,0 11.739,4.989 11.739,11.141 z" /></g><text
         id="text140"
         style="font-variant:normal;font-weight:normal;font-size:11.9552002px;font-family:'Nimbus Roman';-inkscape-font-specification:NimbusRoman-Regular;writing-mode:lr-tb;fill:#000000;fill-opacity:1;fill-rule:nonzero;stroke:none"
         transform="translate(258.29396,15.228693)"><tspan
           id="tspan138"
           y="0"
           x="0">X</tspan></text>
<g
         transform="scale(1,-1)"
         id="g142"><path
           id="path144"
           style="fill:none;stroke:#000000;stroke-width:0.3985;stroke-linecap:butt;stroke-linejoin:miter;stroke-miterlimit:10;stroke-dasharray:none;stroke-opacity:1"
           d="m 359.391,-11.336 c 0,6.148 -5.258,11.137 -11.743,11.137 -6.48,0 -11.738,-4.989 -11.738,-11.137 0,-6.152 5.258,-11.141 11.738,-11.141 6.485,0 11.743,4.989 11.743,11.141 z" /></g><text
         id="text148"
         style="font-variant:normal;font-weight:normal;font-size:11.9552002px;font-family:'Nimbus Roman';-inkscape-font-specification:NimbusRoman-Regular;writing-mode:lr-tb;fill:#000000;fill-opacity:1;fill-rule:nonzero;stroke:none"
         transform="translate(343.33396,15.228693)"><tspan
           id="tspan146"
           y="0"
           x="0">Y</tspan></text>
<g
         transform="scale(1,-1)"
         id="g150"><path
           id="path152"
           style="fill:none;stroke:#000000;stroke-width:0.3985;stroke-linecap:butt;stroke-linejoin:miter;stroke-miterlimit:10;stroke-dasharray:none;stroke-opacity:1"
           d="m 315.93,-96.379 c 0,6.152 -4.836,11.141 -10.801,11.141 -5.965,0 -10.801,-4.989 -10.801,-11.141 0,-6.152 4.836,-11.137 10.801,-11.137 5.965,0 10.801,4.985 10.801,11.137 z" /></g><text
         id="text156"
         style="font-variant:normal;font-weight:normal;font-size:11.9552002px;font-family:'Nimbus Roman';-inkscape-font-specification:NimbusRoman-Regular;writing-mode:lr-tb;fill:#000000;fill-opacity:1;fill-rule:nonzero;stroke:none"
         transform="translate(301.47696,100.26769)"><tspan
           id="tspan154"
           y="0"
           x="0">Z</tspan></text>
<g
         transform="scale(1,-1)"
         id="g158"><path
           id="path160"
           style="fill:none;stroke:#000000;stroke-width:0.3985;stroke-linecap:butt;stroke-linejoin:miter;stroke-miterlimit:10;stroke-dasharray:none;stroke-opacity:1"
           d="m 267.73,-21.578 30.313,-60.625" /></g><g
         transform="matrix(0.499989,1,1,-0.499989,0,0)"
         id="g162"><path
           id="path164"
           style="fill:#000000;fill-opacity:1;fill-rule:nonzero;stroke:#000000;stroke-width:0.35640201;stroke-linecap:butt;stroke-linejoin:miter;stroke-miterlimit:10;stroke-dasharray:none;stroke-opacity:1"
           d="m 188.341,205.554 c -0.414,0.102 -2.23,0.674 -3.364,1.295 v -2.585 c 1.134,0.62 2.952,1.192 3.364,1.29 z" /></g><g
         transform="scale(1,-1)"
         id="g166"><path
           id="path168"
           style="fill:none;stroke:#000000;stroke-width:0.3985;stroke-linecap:butt;stroke-linejoin:miter;stroke-miterlimit:10;stroke-dasharray:none;stroke-opacity:1"
           d="M 342.531,-21.578 312.219,-82.203" /></g><g
         transform="matrix(-0.499989,1,1,0.499989,0,0)"
         id="g170"><path
           id="path172"
           style="fill:#000000;fill-opacity:1;fill-rule:nonzero;stroke:#000000;stroke-width:0.35640201;stroke-linecap:butt;stroke-linejoin:miter;stroke-miterlimit:10;stroke-dasharray:none;stroke-opacity:1"
           d="m -55.759,282.656 c -0.414,0.102 -2.231,0.674 -3.365,1.294 v -2.586 c 1.134,0.622 2.951,1.191 3.365,1.292 z" /></g></g></g></svg>